<?xml version="1.0" encoding="utf-8"?>
<!-- Generator: Adobe Illustrator 28.1.0, SVG Export Plug-In . SVG Version: 6.00 Build 0)  -->
<svg version="1.1" id="Calque_1" xmlns="http://www.w3.org/2000/svg" xmlns:xlink="http://www.w3.org/1999/xlink" x="0px" y="0px"
	 viewBox="0 0 24 24" style="enable-background:new 0 0 24 24;" xml:space="preserve">
<style type="text/css">
	.st0{fill:#FFFFFF;}
</style>
<path class="st0" d="M22,6.2h-2.9c0.3-0.5,0.5-1.1,0.5-1.7c0-1.7-1.4-3.2-3.2-3.2c-2.3,0-3.7,1.8-4.5,3.4c-0.7-1.5-2.1-3.3-4.4-3.3
	c-1.7,0-3.2,1.5-3.2,3.2c0,0.6,0.2,1.1,0.5,1.6H2C1.5,6.2,1.2,6.6,1.2,7v5c0,0.5,0.4,0.8,0.8,0.8h1.2V22c0,0.5,0.4,0.8,0.8,0.8h16
	c0.4,0,0.8-0.4,0.9-0.8v-9.2H22c0.4,0,0.8-0.4,0.8-0.8V7C22.8,6.5,22.4,6.2,22,6.2z M16.5,2.6c1,0,1.8,0.8,1.8,1.8s-0.8,1.8-1.8,1.8
	H13C13.4,5,14.5,2.8,16.5,2.6z M5.7,4.6c0-1,0.8-1.8,1.8-1.8c1.9,0,3,2,3.4,3.4H6.7C6.1,5.9,5.7,5.3,5.7,4.6z M2.8,7.8h4.7h3.7v3.4
	H2.8V7.8z M4.8,12.8h6.4v8.4H4.8V12.8z M19.3,21.2h-6.5v-8.4h6.5V21.2z M21.3,11.2h-8.5V7.8h3.7h4.8V11.2z"/>
</svg>
